# xmcd
#
# Track frame offsets: 
#        150
#        30672
#        60002
#        89125
#        113017
#        140862
#        172397
#        194697
#        224687
#
# Disc length: 3345 seconds
#
# Revision: 3
# Processed by: cddbd v1.5.2PL0 Copyright (c) Steve Scherf et al.
# Submitted via: ExactAudioCopy v0.99pb5
#
DISCID=8f0d0f09
DTITLE=Maceo Parker - Southern Exposure
DYEAR=1993
DGENRE=Blues
TTITLE0=Blues For Shorty Bill
TTITLE1=Keep On Marching
TTITLE2=Mercy, Mercy, Mercy
TTITLE3=Every Saturday Night
TTITLE4=The Way You Look Tonight
TTITLE5=Splashin'
TTITLE6=Walking Home Together
TTITLE7=Sister Sanctified
TTITLE8=Fun In The Sun
EXTD=YEAR: 1993
EXTT0=
EXTT1=
EXTT2=
EXTT3=
EXTT4=
EXTT5=
EXTT6=
EXTT7=
EXTT8=
PLAYORDER=
